<mxfile modified="2022-05-02T00:18:44.720Z" host="app.diagrams.net" agent="5.0 (Windows NT 10.0; Win64; x64) AppleWebKit/537.36 (KHTML, like Gecko) Chrome/100.0.4896.127 Safari/537.36 Edg/100.0.1185.50" etag="DsYOVqaPA3pMcertSN_Q" compressed="false" version="17.5.0" type="google">
  <diagram id="y6uOWQmdPdNdvw-U2qXk" name="Resources Required">
    <mxGraphModel grid="1" page="1" gridSize="10" guides="1" tooltips="1" connect="1" arrows="1" fold="1" pageScale="1" pageWidth="827" pageHeight="1169" math="0" shadow="0">
      <root>
        <mxCell id="oolzuzEoP5yo0JzqJPAS-0" />
        <mxCell id="oolzuzEoP5yo0JzqJPAS-1" parent="oolzuzEoP5yo0JzqJPAS-0" />
        <mxCell id="oolzuzEoP5yo0JzqJPAS-2" value="" style="endArrow=none;html=1;fontColor=#999999;dashed=1;entryX=0.5;entryY=1;entryDx=0;entryDy=0;fontStyle=0" edge="1" parent="oolzuzEoP5yo0JzqJPAS-1" target="oolzuzEoP5yo0JzqJPAS-47">
          <mxGeometry width="50" height="50" relative="1" as="geometry">
            <mxPoint x="400" y="520" as="sourcePoint" />
            <mxPoint x="410" y="200" as="targetPoint" />
          </mxGeometry>
        </mxCell>
        <mxCell id="oolzuzEoP5yo0JzqJPAS-3" value="" style="endArrow=none;html=1;fontColor=#999999;dashed=1;entryX=0.5;entryY=1;entryDx=0;entryDy=0;" edge="1" parent="oolzuzEoP5yo0JzqJPAS-1" target="oolzuzEoP5yo0JzqJPAS-48">
          <mxGeometry width="50" height="50" relative="1" as="geometry">
            <mxPoint x="490" y="520" as="sourcePoint" />
            <mxPoint x="490" y="200" as="targetPoint" />
          </mxGeometry>
        </mxCell>
        <mxCell id="oolzuzEoP5yo0JzqJPAS-4" value="" style="endArrow=none;html=1;fontColor=#999999;dashed=1;entryX=0.5;entryY=1;entryDx=0;entryDy=0;" edge="1" parent="oolzuzEoP5yo0JzqJPAS-1" target="oolzuzEoP5yo0JzqJPAS-49">
          <mxGeometry width="50" height="50" relative="1" as="geometry">
            <mxPoint x="590" y="520" as="sourcePoint" />
            <mxPoint x="590" y="200" as="targetPoint" />
          </mxGeometry>
        </mxCell>
        <mxCell id="oolzuzEoP5yo0JzqJPAS-5" value="" style="endArrow=none;html=1;fontColor=#999999;" edge="1" parent="oolzuzEoP5yo0JzqJPAS-1" source="oolzuzEoP5yo0JzqJPAS-49">
          <mxGeometry width="50" height="50" relative="1" as="geometry">
            <mxPoint x="70" y="200" as="sourcePoint" />
            <mxPoint x="680" y="200" as="targetPoint" />
          </mxGeometry>
        </mxCell>
        <mxCell id="oolzuzEoP5yo0JzqJPAS-6" value="" style="align=left;strokeColor=#bac8d3;html=1;fontColor=#2f5b7c;spacingLeft=10;fontSize=10;" vertex="1" parent="oolzuzEoP5yo0JzqJPAS-1">
          <mxGeometry x="200" y="240" width="480" height="20" as="geometry" />
        </mxCell>
        <mxCell id="oolzuzEoP5yo0JzqJPAS-7" value="" style="align=left;strokeColor=#bac8d3;html=1;fontColor=#2f5b7c;spacingLeft=10;fontSize=10;" vertex="1" parent="oolzuzEoP5yo0JzqJPAS-1">
          <mxGeometry x="220" y="260" width="460" height="20" as="geometry" />
        </mxCell>
        <mxCell id="oolzuzEoP5yo0JzqJPAS-8" value="" style="align=left;strokeColor=#bac8d3;html=1;fontColor=#2f5b7c;spacingLeft=10;fontSize=10;" vertex="1" parent="oolzuzEoP5yo0JzqJPAS-1">
          <mxGeometry x="250" y="280" width="50" height="20" as="geometry" />
        </mxCell>
        <mxCell id="oolzuzEoP5yo0JzqJPAS-9" value="Business Owner" style="text;html=1;strokeColor=none;fillColor=none;align=left;verticalAlign=middle;whiteSpace=wrap;rounded=0;fontColor=#000000;opacity=20;fontSize=10;" vertex="1" parent="oolzuzEoP5yo0JzqJPAS-1">
          <mxGeometry x="120" y="240" width="118" height="20" as="geometry" />
        </mxCell>
        <mxCell id="oolzuzEoP5yo0JzqJPAS-10" value="Business Analyst" style="text;html=1;strokeColor=none;fillColor=none;align=left;verticalAlign=middle;whiteSpace=wrap;rounded=0;fontColor=#000000;opacity=20;fontSize=10;" vertex="1" parent="oolzuzEoP5yo0JzqJPAS-1">
          <mxGeometry x="120" y="260" width="118" height="20" as="geometry" />
        </mxCell>
        <mxCell id="oolzuzEoP5yo0JzqJPAS-11" value="Architect" style="text;html=1;strokeColor=none;fillColor=none;align=left;verticalAlign=middle;whiteSpace=wrap;rounded=0;fontColor=#000000;opacity=20;fontSize=10;" vertex="1" parent="oolzuzEoP5yo0JzqJPAS-1">
          <mxGeometry x="120" y="300" width="118" height="20" as="geometry" />
        </mxCell>
        <mxCell id="oolzuzEoP5yo0JzqJPAS-12" value="Technical Analyst" style="text;html=1;strokeColor=none;fillColor=none;align=left;verticalAlign=middle;whiteSpace=wrap;rounded=0;fontColor=#000000;opacity=20;fontSize=10;" vertex="1" parent="oolzuzEoP5yo0JzqJPAS-1">
          <mxGeometry x="120" y="320" width="118" height="20" as="geometry" />
        </mxCell>
        <mxCell id="oolzuzEoP5yo0JzqJPAS-13" value="Deployment Specialist" style="text;html=1;strokeColor=none;fillColor=none;align=left;verticalAlign=middle;whiteSpace=wrap;rounded=0;fontColor=#000000;opacity=20;fontSize=10;" vertex="1" parent="oolzuzEoP5yo0JzqJPAS-1">
          <mxGeometry x="120" y="340" width="118" height="20" as="geometry" />
        </mxCell>
        <mxCell id="oolzuzEoP5yo0JzqJPAS-14" value="Test Analyst" style="text;html=1;strokeColor=none;fillColor=none;align=left;verticalAlign=middle;whiteSpace=wrap;rounded=0;fontColor=#000000;opacity=20;fontSize=10;" vertex="1" parent="oolzuzEoP5yo0JzqJPAS-1">
          <mxGeometry x="120" y="380" width="118" height="20" as="geometry" />
        </mxCell>
        <mxCell id="oolzuzEoP5yo0JzqJPAS-15" value="API Service Developer" style="text;html=1;strokeColor=none;fillColor=none;align=left;verticalAlign=middle;whiteSpace=wrap;rounded=0;fontColor=#000000;opacity=20;fontSize=10;" vertex="1" parent="oolzuzEoP5yo0JzqJPAS-1">
          <mxGeometry x="120" y="400" width="118" height="20" as="geometry" />
        </mxCell>
        <mxCell id="oolzuzEoP5yo0JzqJPAS-16" value="Interface Designer" style="text;html=1;strokeColor=none;fillColor=none;align=left;verticalAlign=middle;whiteSpace=wrap;rounded=0;fontColor=#000000;opacity=20;fontSize=10;" vertex="1" parent="oolzuzEoP5yo0JzqJPAS-1">
          <mxGeometry x="120" y="420" width="118" height="20" as="geometry" />
        </mxCell>
        <mxCell id="oolzuzEoP5yo0JzqJPAS-17" value="Interface Developer" style="text;html=1;strokeColor=none;fillColor=none;align=left;verticalAlign=middle;whiteSpace=wrap;rounded=0;fontColor=#000000;opacity=20;fontSize=10;" vertex="1" parent="oolzuzEoP5yo0JzqJPAS-1">
          <mxGeometry x="120" y="440" width="118" height="20" as="geometry" />
        </mxCell>
        <mxCell id="oolzuzEoP5yo0JzqJPAS-18" value="Security Specialist" style="text;html=1;strokeColor=none;fillColor=none;align=left;verticalAlign=middle;whiteSpace=wrap;rounded=0;fontColor=#000000;opacity=20;fontSize=10;" vertex="1" parent="oolzuzEoP5yo0JzqJPAS-1">
          <mxGeometry x="120" y="460" width="118" height="20" as="geometry" />
        </mxCell>
        <mxCell id="oolzuzEoP5yo0JzqJPAS-19" value="Communications Specialist" style="text;html=1;strokeColor=none;fillColor=none;align=left;verticalAlign=middle;whiteSpace=wrap;rounded=0;fontColor=#000000;opacity=20;fontSize=10;" vertex="1" parent="oolzuzEoP5yo0JzqJPAS-1">
          <mxGeometry x="120" y="480" width="130" height="20" as="geometry" />
        </mxCell>
        <mxCell id="oolzuzEoP5yo0JzqJPAS-20" value="Data Storage Specialist" style="text;html=1;strokeColor=none;fillColor=none;align=left;verticalAlign=middle;whiteSpace=wrap;rounded=0;fontColor=#000000;opacity=20;fontSize=10;" vertex="1" parent="oolzuzEoP5yo0JzqJPAS-1">
          <mxGeometry x="120" y="360" width="118" height="20" as="geometry" />
        </mxCell>
        <mxCell id="oolzuzEoP5yo0JzqJPAS-21" value="" style="align=left;strokeColor=#bac8d3;html=1;fontColor=#2f5b7c;spacingLeft=10;fontSize=10;fontStyle=0" vertex="1" parent="oolzuzEoP5yo0JzqJPAS-1">
          <mxGeometry x="270" y="300" width="140" height="20" as="geometry" />
        </mxCell>
        <mxCell id="oolzuzEoP5yo0JzqJPAS-22" value="" style="align=left;strokeColor=#bac8d3;html=1;fontColor=#2f5b7c;spacingLeft=10;fontSize=10;fontStyle=0" vertex="1" parent="oolzuzEoP5yo0JzqJPAS-1">
          <mxGeometry x="290" y="320" width="40" height="20" as="geometry" />
        </mxCell>
        <mxCell id="oolzuzEoP5yo0JzqJPAS-23" value="" style="align=left;strokeColor=#bac8d3;html=1;fontColor=#2f5b7c;spacingLeft=10;fontSize=10;fontStyle=0" vertex="1" parent="oolzuzEoP5yo0JzqJPAS-1">
          <mxGeometry x="310" y="340" width="90" height="20" as="geometry" />
        </mxCell>
        <mxCell id="oolzuzEoP5yo0JzqJPAS-24" value="" style="align=left;strokeColor=#bac8d3;html=1;fontColor=#2f5b7c;spacingLeft=10;fontSize=10;fontStyle=0" vertex="1" parent="oolzuzEoP5yo0JzqJPAS-1">
          <mxGeometry x="330" y="380" width="80" height="20" as="geometry" />
        </mxCell>
        <mxCell id="oolzuzEoP5yo0JzqJPAS-25" value="" style="align=left;strokeColor=#bac8d3;html=1;fontColor=#2f5b7c;spacingLeft=10;fontSize=10;fontStyle=0" vertex="1" parent="oolzuzEoP5yo0JzqJPAS-1">
          <mxGeometry x="310" y="360" width="30" height="20" as="geometry" />
        </mxCell>
        <mxCell id="oolzuzEoP5yo0JzqJPAS-26" value="" style="align=left;strokeColor=#bac8d3;html=1;fontColor=#2f5b7c;spacingLeft=10;fontSize=10;" vertex="1" parent="oolzuzEoP5yo0JzqJPAS-1">
          <mxGeometry x="340" y="400" width="170" height="20" as="geometry" />
        </mxCell>
        <mxCell id="oolzuzEoP5yo0JzqJPAS-27" value="" style="align=left;strokeColor=#bac8d3;html=1;fontColor=#2f5b7c;spacingLeft=10;fontSize=10;fontStyle=0" vertex="1" parent="oolzuzEoP5yo0JzqJPAS-1">
          <mxGeometry x="350" y="420" width="50" height="20" as="geometry" />
        </mxCell>
        <mxCell id="oolzuzEoP5yo0JzqJPAS-28" value="" style="align=left;strokeColor=#bac8d3;html=1;fontColor=#2f5b7c;spacingLeft=10;fontSize=10;" vertex="1" parent="oolzuzEoP5yo0JzqJPAS-1">
          <mxGeometry x="370" y="440" width="310" height="20" as="geometry" />
        </mxCell>
        <mxCell id="oolzuzEoP5yo0JzqJPAS-29" value="" style="align=left;strokeColor=#bac8d3;html=1;fontColor=#2f5b7c;spacingLeft=10;fontSize=10;fontStyle=0" vertex="1" parent="oolzuzEoP5yo0JzqJPAS-1">
          <mxGeometry x="380" y="460" width="20" height="20" as="geometry" />
        </mxCell>
        <mxCell id="oolzuzEoP5yo0JzqJPAS-30" value="" style="align=left;strokeColor=#bac8d3;html=1;fontColor=#2f5b7c;spacingLeft=10;fontSize=10;fontStyle=0" vertex="1" parent="oolzuzEoP5yo0JzqJPAS-1">
          <mxGeometry x="380" y="480" width="40" height="20" as="geometry" />
        </mxCell>
        <mxCell id="oolzuzEoP5yo0JzqJPAS-31" value="" style="align=left;strokeColor=#bac8d3;html=1;fontColor=#2f5b7c;spacingLeft=10;fontSize=10;" vertex="1" parent="oolzuzEoP5yo0JzqJPAS-1">
          <mxGeometry x="470" y="480" width="20" height="20" as="geometry" />
        </mxCell>
        <mxCell id="oolzuzEoP5yo0JzqJPAS-32" value="" style="align=left;strokeColor=#bac8d3;html=1;fontColor=#2f5b7c;spacingLeft=10;fontSize=10;" vertex="1" parent="oolzuzEoP5yo0JzqJPAS-1">
          <mxGeometry x="570" y="480" width="20" height="20" as="geometry" />
        </mxCell>
        <mxCell id="oolzuzEoP5yo0JzqJPAS-33" value="" style="align=left;strokeColor=#bac8d3;html=1;fontColor=#2f5b7c;spacingLeft=10;fontSize=10;" vertex="1" parent="oolzuzEoP5yo0JzqJPAS-1">
          <mxGeometry x="470" y="460" width="20" height="20" as="geometry" />
        </mxCell>
        <mxCell id="oolzuzEoP5yo0JzqJPAS-34" value="" style="align=left;strokeColor=#bac8d3;html=1;fontColor=#2f5b7c;spacingLeft=10;fontSize=10;" vertex="1" parent="oolzuzEoP5yo0JzqJPAS-1">
          <mxGeometry x="570" y="460" width="20" height="20" as="geometry" />
        </mxCell>
        <mxCell id="oolzuzEoP5yo0JzqJPAS-35" value="" style="align=left;strokeColor=#bac8d3;html=1;fontColor=#2f5b7c;spacingLeft=10;fontSize=10;" vertex="1" parent="oolzuzEoP5yo0JzqJPAS-1">
          <mxGeometry x="450" y="420" width="20" height="20" as="geometry" />
        </mxCell>
        <mxCell id="oolzuzEoP5yo0JzqJPAS-36" value="" style="align=left;strokeColor=#bac8d3;html=1;fontColor=#2f5b7c;spacingLeft=10;fontSize=10;" vertex="1" parent="oolzuzEoP5yo0JzqJPAS-1">
          <mxGeometry x="540" y="400" width="50" height="20" as="geometry" />
        </mxCell>
        <mxCell id="oolzuzEoP5yo0JzqJPAS-37" value="" style="align=left;strokeColor=#bac8d3;html=1;fontColor=#2f5b7c;spacingLeft=10;fontSize=10;" vertex="1" parent="oolzuzEoP5yo0JzqJPAS-1">
          <mxGeometry x="420" y="380" width="90" height="20" as="geometry" />
        </mxCell>
        <mxCell id="oolzuzEoP5yo0JzqJPAS-38" value="" style="align=left;strokeColor=#bac8d3;html=1;fontColor=#2f5b7c;spacingLeft=10;fontSize=10;" vertex="1" parent="oolzuzEoP5yo0JzqJPAS-1">
          <mxGeometry x="550" y="380" width="50" height="20" as="geometry" />
        </mxCell>
        <mxCell id="oolzuzEoP5yo0JzqJPAS-39" value="" style="align=left;strokeColor=#bac8d3;html=1;fontColor=#2f5b7c;spacingLeft=10;fontSize=10;" vertex="1" parent="oolzuzEoP5yo0JzqJPAS-1">
          <mxGeometry x="430" y="360" width="20" height="20" as="geometry" />
        </mxCell>
        <mxCell id="oolzuzEoP5yo0JzqJPAS-40" value="" style="align=left;strokeColor=#bac8d3;html=1;fontColor=#2f5b7c;spacingLeft=10;fontSize=10;" vertex="1" parent="oolzuzEoP5yo0JzqJPAS-1">
          <mxGeometry x="430" y="340" width="20" height="20" as="geometry" />
        </mxCell>
        <mxCell id="oolzuzEoP5yo0JzqJPAS-41" value="" style="align=left;strokeColor=#bac8d3;html=1;fontColor=#2f5b7c;spacingLeft=10;fontSize=10;" vertex="1" parent="oolzuzEoP5yo0JzqJPAS-1">
          <mxGeometry x="530" y="340" width="20" height="20" as="geometry" />
        </mxCell>
        <mxCell id="oolzuzEoP5yo0JzqJPAS-42" value="" style="align=left;strokeColor=#bac8d3;html=1;fontColor=#2f5b7c;spacingLeft=10;fontSize=10;" vertex="1" parent="oolzuzEoP5yo0JzqJPAS-1">
          <mxGeometry x="430" y="300" width="40" height="20" as="geometry" />
        </mxCell>
        <mxCell id="oolzuzEoP5yo0JzqJPAS-43" value="" style="align=left;strokeColor=#bac8d3;html=1;fontColor=#2f5b7c;spacingLeft=10;fontSize=10;" vertex="1" parent="oolzuzEoP5yo0JzqJPAS-1">
          <mxGeometry x="510" y="300" width="30" height="20" as="geometry" />
        </mxCell>
        <mxCell id="oolzuzEoP5yo0JzqJPAS-44" value="" style="endArrow=none;html=1;fontColor=#999999;" edge="1" parent="oolzuzEoP5yo0JzqJPAS-1" target="oolzuzEoP5yo0JzqJPAS-47">
          <mxGeometry width="50" height="50" relative="1" as="geometry">
            <mxPoint x="200" y="200" as="sourcePoint" />
            <mxPoint x="760" y="200" as="targetPoint" />
          </mxGeometry>
        </mxCell>
        <mxCell id="oolzuzEoP5yo0JzqJPAS-45" value="" style="endArrow=none;html=1;fontColor=#999999;" edge="1" parent="oolzuzEoP5yo0JzqJPAS-1" source="oolzuzEoP5yo0JzqJPAS-47" target="oolzuzEoP5yo0JzqJPAS-48">
          <mxGeometry width="50" height="50" relative="1" as="geometry">
            <mxPoint x="430" y="200" as="sourcePoint" />
            <mxPoint x="760" y="200" as="targetPoint" />
          </mxGeometry>
        </mxCell>
        <mxCell id="oolzuzEoP5yo0JzqJPAS-46" value="" style="endArrow=none;html=1;fontColor=#999999;" edge="1" parent="oolzuzEoP5yo0JzqJPAS-1" source="oolzuzEoP5yo0JzqJPAS-48" target="oolzuzEoP5yo0JzqJPAS-49">
          <mxGeometry width="50" height="50" relative="1" as="geometry">
            <mxPoint x="530" y="200" as="sourcePoint" />
            <mxPoint x="730" y="200" as="targetPoint" />
          </mxGeometry>
        </mxCell>
        <mxCell id="oolzuzEoP5yo0JzqJPAS-47" value="" style="ellipse;whiteSpace=wrap;html=1;aspect=fixed;strokeWidth=2;fontSize=10;fontColor=#000000;opacity=20;align=left;fontStyle=0" vertex="1" parent="oolzuzEoP5yo0JzqJPAS-1">
          <mxGeometry x="390" y="190" width="20" height="20" as="geometry" />
        </mxCell>
        <mxCell id="oolzuzEoP5yo0JzqJPAS-48" value="" style="ellipse;whiteSpace=wrap;html=1;aspect=fixed;strokeWidth=2;fontSize=10;fontColor=#000000;opacity=20;align=left;" vertex="1" parent="oolzuzEoP5yo0JzqJPAS-1">
          <mxGeometry x="480" y="190" width="20" height="20" as="geometry" />
        </mxCell>
        <mxCell id="oolzuzEoP5yo0JzqJPAS-49" value="" style="ellipse;whiteSpace=wrap;html=1;aspect=fixed;strokeWidth=2;fontSize=10;fontColor=#000000;opacity=20;align=left;" vertex="1" parent="oolzuzEoP5yo0JzqJPAS-1">
          <mxGeometry x="580" y="190" width="20" height="20" as="geometry" />
        </mxCell>
        <mxCell id="oolzuzEoP5yo0JzqJPAS-50" value="" style="align=left;strokeColor=#bac8d3;html=1;fontColor=#2f5b7c;spacingLeft=10;fontSize=10;" vertex="1" parent="oolzuzEoP5yo0JzqJPAS-1">
          <mxGeometry x="630" y="380" width="50" height="20" as="geometry" />
        </mxCell>
        <mxCell id="oolzuzEoP5yo0JzqJPAS-51" value="Business Analyst" style="text;html=1;strokeColor=none;fillColor=none;align=left;verticalAlign=middle;whiteSpace=wrap;rounded=0;fontColor=#000000;opacity=20;fontSize=10;" vertex="1" parent="oolzuzEoP5yo0JzqJPAS-1">
          <mxGeometry x="120" y="280" width="118" height="20" as="geometry" />
        </mxCell>
        <mxCell id="oolzuzEoP5yo0JzqJPAS-52" value="" style="align=left;strokeColor=#bac8d3;html=1;fontColor=#2f5b7c;spacingLeft=10;fontSize=10;" vertex="1" parent="oolzuzEoP5yo0JzqJPAS-1">
          <mxGeometry x="600" y="300" width="20" height="20" as="geometry" />
        </mxCell>
        <mxCell id="oolzuzEoP5yo0JzqJPAS-53" value="" style="align=left;strokeColor=#bac8d3;html=1;fontColor=#2f5b7c;spacingLeft=10;fontSize=10;" vertex="1" parent="oolzuzEoP5yo0JzqJPAS-1">
          <mxGeometry x="620" y="400" width="50" height="20" as="geometry" />
        </mxCell>
        <mxCell id="oolzuzEoP5yo0JzqJPAS-54" value="&lt;font style=&quot;font-size: 12px&quot;&gt;Diagram: Delivery - Roles - Indicative Timelines&lt;/font&gt;" style="text;strokeColor=none;fillColor=none;html=1;fontSize=12;fontStyle=2;verticalAlign=middle;align=left;shadow=0;glass=0;comic=0;opacity=30;fontColor=#808080;" vertex="1" parent="oolzuzEoP5yo0JzqJPAS-1">
          <mxGeometry x="120" y="540" width="520" height="20" as="geometry" />
        </mxCell>
      </root>
    </mxGraphModel>
  </diagram>
</mxfile>
